# xmcd
#
# Track frame offsets:
#	150
#	12780
#	25332
#	39830
#	56085
#	70058
#	85736
#	99919
#	114915
#	127307
#	141259
#	156173
#	169838
#	185224
#	198068
#	213294
#	227172
#	242797
#	254632
#	268351
#	283164
#	297476
#	312173
#	324455
#	336958
#
# Disc length: 4687 seconds
# Revision: 0
# Processed by: cddbd v1.5.2PL0 Copyright (c) Steve Scherf et al.
# Submitted via: dBpowerAMP V12.0
#
DISCID=7b124d19
DTITLE=Various Artist - Let Me Tell You About The Blues - Texas
DYEAR=1926
DGENRE=Blues
TTITLE0=Blind Lemon Jefferson - Jack O'Diamond Blues
TTITLE1=Henry ''Ragtime'' Thomas - John Henry
TTITLE2=Blind Willie Johnson - It's Nobody's Fault But Mine
TTITLE3=Coley Jones - Traveling Man
TTITLE4=Washington Phillips - Denomination Blues Pt.1
TTITLE5=Bessie Tucker - Penitentiary
TTITLE6=Frenchy's String Band - Texas And Pacific Blues
TTITLE7=Texas Tommy - Trinity River Bottom Blues
TTITLE8=Hattie Burleson - Jim Nappy
TTITLE9=Ramblin' Thomas - Hard Dallas Blues
TTITLE10=Willie Reed - Texas Blues
TTITLE11=Bobbie Cadillac - Carbolic Acid Blues
TTITLE12=Otis Harris - You'll Like My Loving
TTITLE13=Sammy Hill - Cryin' For You Blues
TTITLE14=William McCoy - Central Tracks Blues
TTITLE15=Texas Alexander - No More Women Blues
TTITLE16=Lonnie Johnson - Broken Levee Blues
TTITLE17=Jesse ''Baby Face'' Thomas - Blue Goose Blues
TTITLE18=Texas Bill Day - Burn The Trestle Down
TTITLE19=Whistlin' Alex Moore - Blue Bloomer Blues
TTITLE20=Oak Cliff T-Bone - Wichita Falls Blues
TTITLE21=Little Hat Jones - Kentucky Blues
TTITLE22=Gene Campbell - Doggone Mean Blues
TTITLE23=Eddie and Oscar - Nok-Em-All
TTITLE24=Walter Davis - Blue Ghost Blues
EXTD=
EXTT0=
EXTT1=
EXTT2=
EXTT3=
EXTT4=
EXTT5=
EXTT6=
EXTT7=
EXTT8=
EXTT9=
EXTT10=
EXTT11=
EXTT12=
EXTT13=
EXTT14=
EXTT15=
EXTT16=
EXTT17=
EXTT18=
EXTT19=
EXTT20=
EXTT21=
EXTT22=
EXTT23=
EXTT24=
PLAYORDER=
